<?xml version="1.0" encoding="utf-8"?>
<!-- Generator: Adobe Illustrator 16.0.0, SVG Export Plug-In . SVG Version: 6.00 Build 0)  -->
<svg version="1.2" baseProfile="tiny" id="Layer_1" xmlns="http://www.w3.org/2000/svg" xmlns:xlink="http://www.w3.org/1999/xlink"
	 x="0px" y="0px" width="500px" height="250px" viewBox="0 0 500 250" xml:space="preserve">
<g>
	<path fill="#E94343" d="M96.6,49.9c-10-8-22.7-12.8-36.5-12.8c-32.3,0-58.6,26.2-58.6,58.6v27.6c0,0.1,0,0.3,0,0.4
		c0,0.1,0,0.3,0,0.4c0,1,0.1,2,0.2,3c1.5,12.5,12.2,22.3,25.1,22.3c12.9,0,23.6-9.7,25.1-22.2c0.1-1,0.2-2,0.2-3.1s-0.1-2.1-0.2-3.1
		v-14.3C51.9,79.2,70.9,56.2,96.6,49.9"/>
	<path fill="#E94343" d="M169.6,49.9c-10-8-22.7-12.8-36.5-12.8c-32.3,0-58.6,26.2-58.6,58.6v27.6c0,0.1,0,0.3,0,0.4
		c0,0.1,0,0.3,0,0.4c0,1,0.1,2,0.2,3c1.5,12.5,12.2,22.3,25.1,22.3c12.9,0,23.6-9.7,25.1-22.2c0.1-1,0.2-2,0.2-3.1s-0.1-2.1-0.2-3.1
		v-14.3C124.9,79.2,144,56.2,169.6,49.9"/>
	<path fill="#F38C55" d="M191.7,95.7c0-18.5-8.7-35-22.1-45.7c-15.5,3.8-28.6,13.7-36.5,27c5.2,8.7,8.2,18.9,8.2,29.8v14.3
		c-0.1,1-0.2,2-0.2,3.1c0,1,0.1,2.1,0.2,3.1c1.5,12.5,12.2,22.2,25.1,22.2c13,0,23.6-9.7,25.1-22.3c0.1-1,0.2-2,0.2-3
		c0-0.1,0-0.3,0-0.4c0-0.1,0-0.3,0-0.4V95.7z"/>
	<path fill="#E94343" d="M245.4,149.5c-5.6,0-10.7-1-15.4-2.9c-4.7-2-8.7-4.6-12.2-8c-3.4-3.3-6.1-7.3-8-11.8
		c-1.9-4.5-2.8-9.4-2.8-14.5V112c0-5.2,1-10,2.9-14.5c1.9-4.5,4.6-8.5,8-11.9c3.4-3.4,7.5-6.1,12.2-8.1c4.7-2,9.9-2.9,15.5-2.9
		s10.7,1,15.4,2.9c4.7,2,8.7,4.6,12.2,8c3.4,3.3,6.1,7.3,8,11.8c1.9,4.5,2.8,9.4,2.8,14.5v0.2c0,5.2-1,10-2.9,14.5
		c-1.9,4.5-4.6,8.5-8,11.9c-3.4,3.4-7.5,6.1-12.2,8.1C256.1,148.5,250.9,149.5,245.4,149.5 M245.6,134.8c3.2,0,6.1-0.6,8.8-1.8
		c2.7-1.2,5-2.8,6.9-4.9c1.9-2.1,3.4-4.5,4.4-7.2c1.1-2.7,1.6-5.6,1.6-8.7V112c0-3.1-0.5-6-1.6-8.8c-1.1-2.8-2.6-5.2-4.6-7.2
		c-2-2.1-4.3-3.7-7-4.9c-2.7-1.2-5.6-1.8-8.8-1.8c-3.2,0-6.2,0.6-8.8,1.8c-2.7,1.2-4.9,2.8-6.8,4.9c-1.9,2.1-3.4,4.5-4.4,7.2
		c-1.1,2.7-1.6,5.6-1.6,8.7v0.2c0,3.1,0.5,6,1.6,8.8c1.1,2.8,2.6,5.2,4.6,7.2c2,2.1,4.3,3.7,6.9,4.9
		C239.4,134.2,242.3,134.8,245.6,134.8"/>
	<path fill="#E94343" d="M298.1,83.8c0-2.2,0.8-4.1,2.3-5.6c1.6-1.6,3.4-2.3,5.6-2.3h40.6c2,0,3.7,0.7,5.1,2.1
		c1.4,1.4,2.1,3.1,2.1,5.1c0,2-0.7,3.7-2.1,5.1s-3.1,2.1-5.1,2.1h-32.6v15.4H342c2,0,3.7,0.7,5.1,2.1c1.4,1.4,2.1,3.1,2.1,5.1
		c0,2-0.7,3.7-2.1,5.1c-1.4,1.4-3.1,2.1-5.1,2.1h-27.9v20.7c0,2.2-0.8,4.1-2.3,5.6c-1.6,1.6-3.4,2.3-5.6,2.3c-2.2,0-4.1-0.8-5.6-2.3
		c-1.5-1.6-2.3-3.4-2.3-5.6V83.8z"/>
	<path fill="#E94343" d="M366.7,83.1c0-2.2,0.8-4.1,2.3-5.6c1.6-1.6,3.4-2.3,5.6-2.3c2.2,0,4.1,0.8,5.6,2.3c1.6,1.6,2.3,3.4,2.3,5.6
		v57.7c0,2.2-0.8,4.1-2.3,5.6c-1.6,1.6-3.4,2.3-5.6,2.3c-2.2,0-4.1-0.8-5.6-2.3c-1.6-1.6-2.3-3.4-2.3-5.6V83.1z"/>
	<path fill="#E94343" d="M401.5,83.1c0-2.2,0.8-4.1,2.3-5.6c1.6-1.6,3.4-2.3,5.6-2.3c2.2,0,4.1,0.8,5.6,2.3c1.6,1.6,2.3,3.4,2.3,5.6
		v57.7c0,2.2-0.8,4.1-2.3,5.6c-1.5,1.6-3.4,2.3-5.6,2.3c-2.2,0-4.1-0.8-5.6-2.3c-1.6-1.6-2.3-3.4-2.3-5.6V83.1z"/>
	<path fill="#E94343" d="M435.5,83.4c0-2.2,0.8-4.1,2.3-5.6c1.6-1.6,3.4-2.3,5.6-2.3h1.7c1.9,0,3.5,0.4,4.8,1.3
		c1.2,0.9,2.4,2,3.5,3.4l30.7,40.3V83c0-2.2,0.8-4.1,2.3-5.6c1.5-1.5,3.4-2.3,5.6-2.3c2.2,0,4.1,0.8,5.6,2.3
		c1.5,1.5,2.3,3.4,2.3,5.6v57.6c0,2.2-0.8,4.1-2.3,5.6c-1.6,1.6-3.4,2.3-5.6,2.3h-0.5c-1.9,0-3.5-0.4-4.8-1.3
		c-1.2-0.9-2.4-2-3.5-3.4l-31.9-41.8V141c0,2.2-0.8,4.1-2.3,5.6c-1.5,1.5-3.4,2.3-5.6,2.3s-4.1-0.8-5.6-2.3
		c-1.5-1.5-2.3-3.4-2.3-5.6V83.4z"/>
	<path fill="#E94343" d="M0.5,209.3c-0.2-0.2-0.4-0.6-0.4-0.9c0-0.7,0.6-1.4,1.4-1.4c0.5,0,0.7,0.2,1,0.5c1.4,1.8,2.7,2.8,5,2.8
		c2.7,0,4.8-2,4.8-5.8v-15.1c0-0.8,0.6-1.4,1.4-1.4c0.8,0,1.4,0.6,1.4,1.4v15.1c0,2.9-0.8,5-2.2,6.4c-1.4,1.4-3.2,2-5.4,2
		C4.2,212.8,2,211.4,0.5,209.3"/>
	<path fill="#E94343" d="M38.5,202.3v-12.9c0-0.8,0.6-1.4,1.4-1.4c0.8,0,1.4,0.6,1.4,1.4v12.8c0,5.3,2.8,8.2,7.4,8.2
		c4.5,0,7.3-2.7,7.3-8v-12.9c0-0.8,0.6-1.4,1.4-1.4c0.7,0,1.4,0.6,1.4,1.4v12.7c0,7.1-4.1,10.8-10.2,10.8
		C42.6,212.9,38.5,209.2,38.5,202.3"/>
	<path fill="#E94343" d="M81.8,209.6c-0.3-0.2-0.5-0.6-0.5-1c0-0.8,0.6-1.4,1.3-1.4c0.3,0,0.6,0.1,0.8,0.3c2.3,1.9,4.6,2.9,7.7,2.9
		c3.3,0,5.4-1.7,5.4-4.1v-0.1c0-2.3-1.2-3.5-6.3-4.6c-5.6-1.2-8.2-3-8.2-7v-0.1c0-3.8,3.4-6.6,8-6.6c3.2,0,5.5,0.8,7.8,2.4
		c0.3,0.2,0.6,0.6,0.6,1.1c0,0.7-0.6,1.3-1.3,1.3c-0.3,0-0.6-0.1-0.8-0.2c-2.1-1.5-4-2.1-6.3-2.1c-3.2,0-5.2,1.7-5.2,3.9v0.1
		c0,2.3,1.2,3.6,6.6,4.7c5.4,1.2,7.9,3.2,7.9,6.9v0.1c0,4.2-3.5,6.9-8.3,6.9C87.5,212.8,84.6,211.7,81.8,209.6"/>
	<path fill="#E94343" d="M128.3,190.7h-7.1c-0.7,0-1.3-0.6-1.3-1.3c0-0.7,0.6-1.3,1.3-1.3h16.9c0.7,0,1.3,0.6,1.3,1.3
		c0,0.7-0.6,1.3-1.3,1.3h-7.1v20.6c0,0.8-0.6,1.4-1.4,1.4s-1.4-0.6-1.4-1.4V190.7z"/>
	<path fill="#E94343" d="M189.6,189.4c0-0.7,0.6-1.4,1.4-1.4h0.3c0.6,0,1,0.3,1.3,0.7l8.7,13.1l8.7-13.1c0.3-0.5,0.7-0.7,1.3-0.7
		h0.3c0.7,0,1.4,0.6,1.4,1.4v21.9c0,0.8-0.6,1.4-1.4,1.4c-0.8,0-1.4-0.7-1.4-1.4v-18.2l-7.8,11.4c-0.3,0.5-0.7,0.7-1.1,0.7
		c-0.5,0-0.9-0.2-1.2-0.7l-7.8-11.4v18.2c0,0.8-0.6,1.4-1.4,1.4c-0.7,0-1.3-0.6-1.3-1.4V189.4z"/>
	<path fill="#E94343" d="M236.1,200.4L236.1,200.4c0-6.8,5-12.7,12.5-12.7c7.4,0,12.4,5.8,12.4,12.5v0.1c0,6.7-5,12.6-12.5,12.6
		C241.1,212.9,236.1,207.1,236.1,200.4 M258.1,200.4L258.1,200.4c0-5.6-4-10.1-9.6-10.1c-5.6,0-9.5,4.5-9.5,10v0.1
		c0,5.5,4,10.1,9.6,10.1C254.1,210.4,258.1,205.9,258.1,200.4"/>
	<path fill="#E94343" d="M284.2,189.5c0-0.8,0.6-1.4,1.4-1.4h9.1c3,0,5.4,0.9,6.9,2.4c1.2,1.2,1.9,2.9,1.9,4.8v0.1
		c0,4-2.7,6.3-6.5,7.1l6.1,7.8c0.3,0.3,0.5,0.7,0.5,1c0,0.7-0.7,1.4-1.4,1.4c-0.6,0-1-0.3-1.3-0.7l-6.9-8.9h-7v8.2
		c0,0.8-0.6,1.4-1.4,1.4c-0.7,0-1.4-0.6-1.4-1.4V189.5z M294.4,200.5c3.6,0,6.3-1.9,6.3-5v-0.1c0-3-2.3-4.8-6.2-4.8h-7.5v9.9H294.4z
		"/>
	<path fill="#E94343" d="M328.1,212.5c-0.7,0-1.4-0.6-1.4-1.4v-21.6c0-0.8,0.6-1.4,1.4-1.4h15.1c0.7,0,1.3,0.6,1.3,1.3
		s-0.6,1.3-1.3,1.3h-13.7v8.3h12.2c0.7,0,1.3,0.6,1.3,1.3c0,0.7-0.6,1.3-1.3,1.3h-12.2v8.5h13.9c0.7,0,1.3,0.6,1.3,1.3
		s-0.6,1.3-1.3,1.3H328.1z"/>
	<path fill="#E94343" d="M395.2,189.5c0-0.8,0.6-1.4,1.4-1.4h15.1c0.7,0,1.3,0.6,1.3,1.3s-0.6,1.3-1.3,1.3H398v8.7h12.1
		c0.7,0,1.3,0.6,1.3,1.2c0,0.7-0.6,1.3-1.3,1.3H398v9.4c0,0.8-0.6,1.4-1.4,1.4c-0.7,0-1.4-0.6-1.4-1.4V189.5z"/>
	<path fill="#E94343" d="M435.1,202.3v-12.9c0-0.8,0.6-1.4,1.4-1.4c0.8,0,1.4,0.6,1.4,1.4v12.8c0,5.3,2.8,8.2,7.4,8.2
		c4.5,0,7.3-2.7,7.3-8v-12.9c0-0.8,0.6-1.4,1.4-1.4c0.7,0,1.4,0.6,1.4,1.4v12.7c0,7.1-4.1,10.8-10.2,10.8
		C439.2,212.9,435.1,209.2,435.1,202.3"/>
	<path fill="#E94343" d="M479.3,189.4c0-0.7,0.6-1.4,1.4-1.4h0.4c0.7,0,1,0.3,1.4,0.8l14.8,18.9v-18.4c0-0.7,0.6-1.4,1.4-1.4
		c0.7,0,1.3,0.6,1.3,1.4v22c0,0.7-0.5,1.3-1.3,1.3h-0.1c-0.6,0-1-0.3-1.4-0.8l-15.1-19.3v18.9c0,0.7-0.6,1.4-1.4,1.4
		c-0.7,0-1.3-0.6-1.3-1.4V189.4z"/>
</g>
</svg>
