<svg width="30" height="29" viewBox="0 0 30 29" fill="none" xmlns="http://www.w3.org/2000/svg">
<path fill-rule="evenodd" clip-rule="evenodd" d="M29.2351 10.3661L19.5369 9.46661L15.6845 0.52105C15.4148 -0.105324 14.5267 -0.105324 14.257 0.52105L10.4046 9.46666L0.706449 10.3661C0.0273849 10.4291 -0.247059 11.2737 0.26528 11.7237L7.58259 18.1519L5.44119 27.6534C5.29124 28.3187 6.00972 28.8407 6.5961 28.4925L14.9708 23.5198L23.3455 28.4925C23.9318 28.8407 24.6504 28.3187 24.5004 27.6534L22.359 18.1519L29.6763 11.7237C30.1886 11.2737 29.9142 10.4291 29.2351 10.3661Z" fill="#FFDC64"/>
<path fill-rule="evenodd" clip-rule="evenodd" d="M15.6845 0.52105C15.4148 -0.105324 14.5267 -0.105324 14.257 0.52105L10.4046 9.46666L0.706449 10.3661C0.0273849 10.4291 -0.247059 11.2737 0.26528 11.7237L7.58259 18.1519L5.44119 27.6534C5.29124 28.3187 6.00972 28.8407 6.5961 28.4925L8.46528 27.3826C8.72399 16.7334 13.6719 9.23421 17.5894 4.94421L15.6845 0.52105Z" fill="#FFC850"/>
</svg>
